<?xml version="1.0" encoding="utf-8"?>
<!-- Generator: Adobe Illustrator 25.3.1, SVG Export Plug-In . SVG Version: 6.00 Build 0)  -->
<svg version="1.1" id="Capa_1" xmlns="http://www.w3.org/2000/svg" xmlns:xlink="http://www.w3.org/1999/xlink" x="0px" y="0px"
	 viewBox="0 0 97.93 37.23" style="enable-background:new 0 0 97.93 37.23;" xml:space="preserve">
<style type="text/css">
	.st0{fill:#C99200;}
</style>
<g>
	<g>
		<path class="st0" d="M7.26,20.19V3.03h1.15v16.1h7.9v1.06H7.26z"/>
		<path class="st0" d="M31.99,18.52c-1.1,1.3-2.78,1.96-5.04,1.96c-2.26,0-3.94-0.66-5.05-1.97c-1.11-1.31-1.67-3.1-1.67-5.38V3.03
			h1.15v10.1c0,4.22,1.85,6.34,5.56,6.34c3.7,0,5.56-2.11,5.56-6.34V3.03h1.15v10.1C33.65,15.42,33.1,17.22,31.99,18.52z"/>
		<path class="st0" d="M47.91,20.48c-2.5,0-4.64-0.85-6.43-2.56s-2.69-3.81-2.69-6.31c0-2.5,0.78-4.61,2.35-6.31
			s3.58-2.56,6.02-2.56c1.92,0,3.86,0.32,5.83,0.96l-0.31,0.96c-1.92-0.58-3.76-0.86-5.52-0.86c-2.1,0-3.81,0.75-5.14,2.26
			c-1.33,1.5-1.99,3.34-1.99,5.52c0,2.18,0.77,4.03,2.32,5.56c1.54,1.53,3.4,2.29,5.56,2.29c1.89,0,3.52-0.29,4.9-0.86l0.36,0.82
			c-0.61,0.35-1.4,0.62-2.39,0.82C49.79,20.38,48.83,20.48,47.91,20.48z"/>
		<path class="st0" d="M65.55,20.48c-2.5,0-4.64-0.85-6.43-2.56s-2.69-3.81-2.69-6.31c0-2.5,0.78-4.61,2.35-6.31
			s3.58-2.56,6.02-2.56c1.92,0,3.86,0.32,5.83,0.96l-0.31,0.96C68.4,4.09,66.56,3.8,64.8,3.8c-2.1,0-3.81,0.75-5.14,2.26
			c-1.33,1.5-1.99,3.34-1.99,5.52c0,2.18,0.77,4.03,2.32,5.56c1.54,1.53,3.4,2.29,5.56,2.29c1.89,0,3.52-0.29,4.9-0.86l0.36,0.82
			c-0.61,0.35-1.4,0.62-2.39,0.82C67.43,20.38,66.47,20.48,65.55,20.48z"/>
		<path class="st0" d="M79.23,14.24l-2.47,5.95h-1.22l7.22-17.28h0.67l7.25,17.28h-1.3l-2.47-5.95H79.23z M83.02,4.83
			c-0.02,0.02-0.05,0.11-0.1,0.29c-0.22,0.69-0.44,1.27-0.65,1.75l-2.64,6.38h6.86L83.86,6.9C83.3,5.68,83.02,4.99,83.02,4.83z"/>
	</g>
	<g>
		<g>
			<g>
				<g>
					<path class="st0" d="M39.14,31.97l-4.53-2.91l4.52-2.98l4.98,2.94L39.14,31.97z M35.53,29.06l3.62,2.33l3.99-2.36l-3.99-2.36
						L35.53,29.06z"/>
				</g>
			</g>
			<g>
				<g>
					<path class="st0" d="M42.75,31.97l-4.53-2.91l4.52-2.98l4.98,2.94L42.75,31.97z M39.14,29.06l3.62,2.33l3.99-2.36l-3.99-2.36
						L39.14,29.06z"/>
				</g>
			</g>
		</g>
		<g>
			<g>
				<g>
					<path class="st0" d="M54.8,31.97l-4.53-2.91l4.52-2.98l4.98,2.94L54.8,31.97z M51.19,29.06l3.62,2.33l3.99-2.36l-3.99-2.36
						L51.19,29.06z"/>
				</g>
			</g>
			<g>
				<g>
					<path class="st0" d="M58.42,31.97l-4.53-2.91l4.52-2.98l4.98,2.94L58.42,31.97z M54.81,29.06l3.62,2.33l3.99-2.36l-3.99-2.36
						L54.81,29.06z"/>
				</g>
			</g>
		</g>
		<g>
			<path class="st0" d="M92.14,29.24H62.61c-0.15,0-0.26-0.11-0.26-0.24s0.12-0.24,0.26-0.24h29.54c0.15,0,0.26,0.11,0.26,0.24
				S92.29,29.24,92.14,29.24z"/>
		</g>
		<g>
			<path class="st0" d="M35.3,29.24H5.76c-0.15,0-0.26-0.11-0.26-0.24s0.12-0.24,0.26-0.24H35.3c0.15,0,0.26,0.11,0.26,0.24
				S35.45,29.24,35.3,29.24z"/>
		</g>
		<path class="st0" d="M90.89,29.01c0.83,0.01,2.29,1.47,2.29,1.47s1.03-1.49,2.52-1.49c-1.49,0-2.52-1.49-2.52-1.49
			S91.72,29,90.89,29.01z"/>
		<path class="st0" d="M7.04,28.98c-0.83-0.01-2.29-1.47-2.29-1.47s-1.03,1.49-2.52,1.49c1.49,0,2.52,1.49,2.52,1.49
			S6.22,28.99,7.04,28.98z"/>
		<g>
			<g>
				<g>
					<path class="st0" d="M48.99,31.77l-3.18-4.61l3.15-4.19l3.21,4.19L48.99,31.77z M46.44,27.17l2.55,3.69l2.54-3.69l-2.57-3.36
						L46.44,27.17z"/>
				</g>
			</g>
			<g>
				<g>
					<path class="st0" d="M48.99,35.12l-3.18-4.61l3.15-4.19l3.21,4.19L48.99,35.12z M46.44,30.52l2.55,3.69l2.54-3.69l-2.57-3.36
						L46.44,30.52z"/>
				</g>
			</g>
		</g>
	</g>
</g>
</svg>
