<?xml version="1.0" encoding="utf-8"?>
<!-- Generator: Adobe Illustrator 25.3.1, SVG Export Plug-In . SVG Version: 6.00 Build 0)  -->
<svg version="1.1" id="Capa_1" xmlns="http://www.w3.org/2000/svg" xmlns:xlink="http://www.w3.org/1999/xlink" x="0px" y="0px"
	 viewBox="0 0 97.93 11.88" style="enable-background:new 0 0 97.93 11.88;" xml:space="preserve">
<style type="text/css">
	.st0{fill:#8E6B00;}
</style>
<g>
	<g>
		<g>
			<g>
				<path class="st0" d="M40.65,8.88l-4.53-2.91l4.52-2.98l4.98,2.94L40.65,8.88z M37.04,5.97l3.62,2.33l3.99-2.36l-3.99-2.36
					L37.04,5.97z"/>
			</g>
		</g>
		<g>
			<g>
				<path class="st0" d="M44.27,8.88l-4.53-2.91l4.52-2.98l4.98,2.94L44.27,8.88z M40.66,5.97l3.62,2.33l3.99-2.36l-3.99-2.36
					L40.66,5.97z"/>
			</g>
		</g>
	</g>
	<g>
		<g>
			<g>
				<path class="st0" d="M53.32,8.88l-4.53-2.91l4.52-2.98l4.98,2.94L53.32,8.88z M49.71,5.97l3.62,2.33l3.99-2.36l-3.99-2.36
					L49.71,5.97z"/>
			</g>
		</g>
		<g>
			<g>
				<path class="st0" d="M56.93,8.88l-4.53-2.91l4.52-2.98l4.98,2.94L56.93,8.88z M53.32,5.97l3.62,2.33l3.99-2.36l-3.99-2.36
					L53.32,5.97z"/>
			</g>
		</g>
	</g>
	<g>
		<path class="st0" d="M90.66,6.14H61.12c-0.15,0-0.26-0.11-0.26-0.24s0.12-0.24,0.26-0.24h29.54c0.15,0,0.26,0.11,0.26,0.24
			S90.8,6.14,90.66,6.14z"/>
	</g>
	<g>
		<path class="st0" d="M36.81,6.14H7.28c-0.15,0-0.26-0.11-0.26-0.24s0.12-0.24,0.26-0.24h29.54c0.15,0,0.26,0.11,0.26,0.24
			S36.96,6.14,36.81,6.14z"/>
	</g>
</g>
</svg>
